<svg xmlns="http://www.w3.org/2000/svg" xmlns:xlink="http://www.w3.org/1999/xlink" width="512" zoomAndPan="magnify" viewBox="0 0 384 383.999986" height="512" preserveAspectRatio="xMidYMid meet" version="1.0"><path fill="#eff3fa" d="M 279.105469 299.085938 C 277.675781 299.085938 276.195312 299.050781 274.710938 298.980469 L 272.21875 298.863281 L 271.875 270.621094 L 274.914062 271.042969 C 274.917969 271.042969 275.824219 271.160156 277.308594 271.160156 C 285.039062 271.160156 303.316406 268.171875 306.34375 240.519531 C 306.933594 214.417969 305.96875 172.847656 300.902344 164.972656 L 300.695312 164.652344 L 300.585938 164.285156 C 300.558594 164.195312 297.601562 154.835938 290.878906 154.835938 C 286.488281 154.835938 280.945312 158.65625 274.847656 165.878906 L 274.265625 166.570312 L 265.929688 168.367188 L 262.960938 127.164062 L 264.882812 126.484375 C 265.289062 126.339844 274.996094 122.964844 286.894531 122.964844 C 301.6875 122.964844 326.949219 128.660156 329.882812 166.804688 C 330.097656 169.28125 335.300781 228.363281 333.558594 248.589844 C 333.554688 250.597656 333.113281 270.007812 319.222656 284.304688 C 309.695312 294.109375 296.199219 299.085938 279.105469 299.085938 Z M 279.105469 299.085938 " fill-opacity="1" fill-rule="nonzero"/><path fill="#000000" d="M 286.890625 125.664062 C 303.621094 125.664062 324.597656 132.6875 327.238281 167.015625 C 327.238281 167.015625 332.683594 228.371094 330.910156 248.46875 C 330.910156 248.46875 331.316406 296.382812 279.101562 296.382812 C 277.714844 296.382812 276.292969 296.351562 274.832031 296.28125 L 274.554688 273.71875 C 274.554688 273.71875 275.589844 273.863281 277.304688 273.863281 C 284.882812 273.863281 305.71875 271.058594 308.984375 240.699219 C 308.984375 240.699219 310.480469 174.941406 303.109375 163.488281 C 303.109375 163.488281 299.683594 152.132812 290.875 152.132812 C 286.363281 152.132812 280.441406 155.109375 272.839844 164.117188 L 268.34375 165.082031 L 265.742188 129.035156 C 265.746094 129.035156 275.300781 125.664062 286.890625 125.664062 M 286.890625 120.257812 L 286.890625 125.664062 L 286.890625 120.257812 C 274.550781 120.261719 264.441406 123.777344 264.011719 123.929688 L 260.164062 125.289062 L 260.464844 129.433594 L 263.066406 165.480469 L 263.507812 171.644531 L 269.4375 170.367188 L 273.933594 169.402344 L 275.679688 169.027344 L 276.847656 167.640625 C 284.269531 158.847656 288.820312 157.535156 290.875 157.535156 C 295.554688 157.535156 298.035156 165.03125 298.058594 165.105469 L 298.28125 165.839844 L 298.6875 166.457031 C 299.574219 167.835938 302.546875 174.808594 303.519531 206.558594 C 304.023438 222.9375 303.738281 238.277344 303.695312 240.339844 C 300.976562 264.800781 286.007812 268.460938 277.304688 268.460938 C 276.027344 268.460938 275.246094 268.363281 275.238281 268.363281 L 269.15625 267.519531 L 269.261719 273.789062 L 269.535156 296.351562 L 269.597656 301.445312 L 274.582031 301.679688 C 276.105469 301.753906 277.625 301.789062 279.097656 301.789062 C 296.921875 301.789062 311.050781 296.546875 321.097656 286.207031 C 335.4375 271.445312 336.171875 251.496094 336.199219 248.71875 C 337.925781 228.230469 332.769531 169.515625 332.507812 166.5625 C 329.402344 126.277344 302.597656 120.265625 286.890625 120.265625 Z M 286.890625 120.257812 " fill-opacity="1" fill-rule="nonzero"/><path fill="#eff3fa" d="M 176.820312 342.476562 C 156.71875 342.476562 107.929688 340.011719 89.117188 317.179688 C 88.714844 316.6875 88.496094 316.070312 88.496094 315.433594 L 88.867188 139.214844 C 88.871094 137.867188 89.84375 136.730469 91.15625 136.546875 L 265.890625 112.089844 C 266.011719 112.070312 266.132812 112.0625 266.25 112.0625 C 266.863281 112.0625 267.464844 112.28125 267.945312 112.6875 C 268.515625 113.171875 268.863281 113.882812 268.894531 114.640625 L 277.726562 310.316406 C 277.75 310.949219 277.5625 311.570312 277.1875 312.074219 C 270.773438 320.695312 248.886719 340.90625 184.332031 342.328125 C 184.355469 342.332031 181.515625 342.472656 176.820312 342.472656 Z M 176.820312 342.476562 " fill-opacity="1" fill-rule="nonzero"/><path fill="#000000" d="M 266.25 114.773438 L 275.082031 310.453125 C 269.234375 318.3125 248.167969 338.226562 184.273438 339.640625 C 184.136719 339.648438 181.363281 339.777344 176.820312 339.777344 C 158.105469 339.777344 109.371094 337.566406 91.144531 315.441406 L 91.515625 139.226562 L 266.25 114.769531 M 266.25 109.367188 C 266.011719 109.367188 265.769531 109.382812 265.53125 109.417969 L 90.792969 133.875 C 88.175781 134.242188 86.222656 136.519531 86.21875 139.21875 L 85.847656 315.429688 C 85.84375 316.707031 86.285156 317.945312 87.089844 318.917969 C 95.753906 329.433594 111.128906 336.933594 132.792969 341.214844 C 150.277344 344.667969 167.882812 345.179688 176.820312 345.179688 C 181.132812 345.179688 183.925781 345.066406 184.449219 345.042969 C 250.109375 343.578125 272.648438 322.652344 279.292969 313.722656 C 280.042969 312.714844 280.421875 311.46875 280.367188 310.207031 L 271.539062 114.527344 C 271.46875 113.011719 270.78125 111.59375 269.636719 110.625 C 268.683594 109.808594 267.480469 109.375 266.25 109.375 Z M 266.25 109.367188 " fill-opacity="1" fill-rule="nonzero"/><path fill="#eff3fa" d="M 181.871094 381.3125 C 162.074219 381.3125 113.019531 379.324219 85.085938 360.902344 C 84.882812 360.769531 84.699219 360.609375 84.542969 360.425781 C 83.757812 359.523438 77.15625 350.722656 86.4375 319.769531 C 86.769531 318.664062 87.757812 317.890625 88.894531 317.859375 C 88.894531 317.859375 89.691406 317.839844 89.71875 317.839844 C 90.429688 317.839844 91.113281 318.132812 91.613281 318.652344 C 94.90625 322.097656 99.109375 325.214844 104.105469 327.914062 C 127.003906 340.285156 161.875 341.621094 175.804688 341.621094 C 180.765625 341.621094 183.949219 341.460938 184.300781 341.445312 C 243.40625 340.136719 266.367188 323.542969 274.800781 313.769531 C 275.304688 313.183594 276.03125 312.851562 276.789062 312.851562 C 276.902344 312.851562 277.019531 312.859375 277.132812 312.875 C 278.007812 312.992188 278.765625 313.546875 279.160156 314.355469 C 280.539062 317.203125 292.320312 342.546875 281.238281 355.824219 C 281.183594 355.894531 281.121094 355.964844 281.050781 356.027344 C 280.089844 356.96875 256.667969 379.050781 188.765625 381.214844 C 188.683594 381.21875 186.175781 381.316406 181.875 381.316406 C 181.871094 381.3125 181.871094 381.3125 181.871094 381.3125 Z M 181.871094 381.3125 " fill-opacity="1" fill-rule="nonzero"/><path fill="#000000" d="M 276.78125 315.546875 C 277.9375 317.933594 289.238281 342.058594 279.21875 354.066406 C 279.21875 354.066406 256.347656 376.351562 188.679688 378.507812 C 188.679688 378.507812 186.167969 378.609375 181.867188 378.609375 C 163.796875 378.609375 114.152344 376.855469 86.515625 358.628906 C 86.515625 358.628906 79.851562 350.957031 88.960938 320.558594 L 89.710938 320.539062 C 93.375 324.367188 97.855469 327.589844 102.863281 330.296875 C 125.878906 342.734375 159.933594 344.320312 175.800781 344.320312 C 180.6875 344.320312 183.847656 344.167969 184.429688 344.136719 C 244.839844 342.804688 268.3125 325.363281 276.78125 315.546875 M 276.78125 310.144531 C 275.269531 310.144531 273.820312 310.804688 272.808594 311.976562 C 269.085938 316.292969 261.789062 322.574219 248.164062 327.992188 C 231.652344 334.550781 210.171875 338.167969 184.316406 338.738281 C 184.261719 338.738281 184.210938 338.738281 184.160156 338.742188 C 183.816406 338.761719 180.695312 338.917969 175.800781 338.917969 C 162.066406 338.917969 127.714844 337.609375 105.339844 325.523438 C 100.585938 322.953125 96.601562 320.007812 93.5 316.761719 C 92.503906 315.722656 91.136719 315.132812 89.710938 315.132812 C 89.664062 315.132812 89.617188 315.132812 89.566406 315.136719 L 88.816406 315.15625 C 86.542969 315.21875 84.566406 316.757812 83.902344 318.976562 C 74.640625 349.871094 80.53125 359.882812 82.554688 362.214844 C 82.875 362.582031 83.242188 362.902344 83.644531 363.167969 C 112.171875 381.980469 161.839844 384.011719 181.867188 384.011719 C 186.222656 384.011719 188.777344 383.910156 188.886719 383.90625 C 257.75 381.710938 281.882812 358.945312 282.875 357.976562 C 283.007812 357.847656 283.132812 357.714844 283.25 357.570312 C 295.179688 343.28125 283.910156 318.0625 281.527344 313.152344 C 280.746094 311.535156 279.226562 310.425781 277.476562 310.191406 C 277.246094 310.15625 277.011719 310.144531 276.78125 310.144531 Z M 276.78125 310.144531 " fill-opacity="1" fill-rule="nonzero"/><path fill="#ffcd49" d="M 260.351562 290.578125 C 260.488281 300.480469 253.203125 311.277344 244.152344 314.570312 C 207.878906 327.785156 169.847656 329.191406 132.535156 320.113281 C 128.09375 319.035156 123.628906 317.9375 119.28125 316.496094 C 110.144531 313.464844 102.550781 302.878906 102.40625 292.976562 L 101.148438 204.738281 C 101.011719 194.835938 100.777344 178.628906 100.636719 168.722656 L 99.378906 80.492188 C 99.238281 70.585938 106.976562 62.363281 116.574219 62.21875 L 160.640625 61.550781 C 170.238281 61.402344 185.949219 61.164062 195.542969 61.019531 L 239.609375 60.351562 C 249.210938 60.207031 252.816406 68.191406 252.957031 78.09375 L 257.707031 166.328125 C 257.84375 176.230469 258.949219 192.4375 259.089844 202.339844 Z M 260.351562 290.578125 " fill-opacity="1" fill-rule="nonzero"/><path fill="#f89939" d="M 246.554688 257.8125 C 247.160156 267.679688 247.128906 276.433594 239.964844 278.257812 C 232.375 280.191406 231.578125 270.636719 231.371094 260.710938 C 230.816406 234.476562 231.039062 208.164062 230.996094 181.910156 C 230.984375 173.148438 230.960938 158.816406 230.945312 150.054688 L 230.824219 72.011719 C 230.8125 63.25 231.5625 55.980469 232.492188 55.847656 L 236.757812 55.257812 C 237.691406 55.128906 239.210938 54.917969 240.140625 54.789062 L 244.410156 54.199219 C 245.339844 54.070312 245.6875 61.132812 245.703125 69.890625 L 246.160156 147.933594 C 246.175781 156.695312 246.285156 171.027344 246.296875 179.789062 C 246.320312 195.753906 246.285156 211.714844 246.34375 227.679688 C 246.378906 237.652344 245.925781 247.742188 246.542969 257.65625 C 246.546875 257.707031 246.546875 257.757812 246.554688 257.8125 Z M 246.554688 257.8125 " fill-opacity="1" fill-rule="nonzero"/><path fill="#ffffff" d="M 244.691406 132.96875 C 244.691406 132.96875 272.152344 158.125 282.71875 111.40625 C 282.71875 111.40625 299.617188 104.21875 288.351562 88.40625 C 288.351562 88.40625 293.984375 69.722656 277.789062 71.878906 C 277.789062 71.878906 279.898438 47.441406 256.660156 51.753906 C 256.660156 51.753906 248.914062 37.378906 234.125 48.878906 C 234.125 48.878906 237.207031 34.726562 230.605469 27.054688 C 230.605469 27.054688 204.546875 0.00390625 176.382812 28.753906 C 176.382812 28.753906 161.59375 17.253906 149.621094 33.066406 C 149.621094 33.066406 137.652344 24.441406 126.382812 38.816406 C 126.382812 38.816406 114.414062 18.6875 101.035156 38.816406 C 101.035156 38.816406 69.34375 34.503906 73.570312 66.847656 C 73.570312 66.847656 48.921875 80.5 61.597656 98.46875 C 61.597656 98.46875 46.214844 109.898438 57.375 122.1875 C 57.375 122.1875 47.976562 136.011719 65.824219 147.34375 C 65.824219 147.34375 68.640625 162.4375 79.910156 158.125 C 79.910156 158.125 76.386719 181.121094 91.175781 184.71875 C 91.175781 184.71875 93.992188 233.589844 123.570312 229.277344 C 123.570312 229.277344 146.101562 229.996094 150.328125 198.371094 C 150.328125 198.371094 176.382812 182.558594 163.707031 160.996094 C 163.707031 160.996094 188.339844 169.183594 196.789062 145.464844 C 196.789062 145.464844 213.863281 156.601562 220.902344 143.664062 C 220.902344 143.664062 242.574219 156.683594 244.691406 132.96875 Z M 244.691406 132.96875 " fill-opacity="1" fill-rule="nonzero"/><path fill="#000000" d="M 119.953125 232.246094 C 94.519531 232.246094 89.519531 195.734375 88.675781 186.777344 C 77.371094 182.648438 76.59375 168.5 76.929688 161.566406 C 76.636719 161.585938 76.34375 161.597656 76.058594 161.597656 C 67.566406 161.597656 64.371094 152.382812 63.488281 149.027344 C 57.386719 144.925781 53.730469 140.035156 52.605469 134.484375 C 51.554688 129.292969 53.046875 124.882812 54.164062 122.511719 C 51.503906 119.027344 50.351562 115.273438 50.726562 111.335938 C 51.3125 105.21875 55.542969 100.359375 58.097656 97.945312 C 55.5 93.414062 54.714844 88.75 55.769531 84.042969 C 57.898438 74.539062 67.023438 67.8125 70.734375 65.421875 C 69.878906 56.476562 71.65625 49.375 76.019531 44.289062 C 82.261719 37.011719 92.121094 35.921875 97.441406 35.921875 C 98.335938 35.921875 99.117188 35.953125 99.738281 35.992188 C 103.96875 30.136719 108.605469 27.167969 113.542969 27.167969 C 119.453125 27.167969 124.0625 31.503906 126.5625 34.535156 C 131.894531 29.042969 137.242188 27.796875 140.988281 27.796875 C 144.363281 27.796875 147.171875 28.777344 148.972656 29.632812 C 153.371094 24.636719 158.683594 22.011719 164.457031 22.011719 C 169.476562 22.011719 173.703125 23.96875 176.035156 25.328125 C 184.726562 17.027344 194.101562 12.820312 203.933594 12.820312 C 220.40625 12.820312 232 24.65625 232.488281 25.160156 C 232.519531 25.199219 232.554688 25.234375 232.585938 25.273438 C 237.160156 30.585938 237.703125 38.328125 237.421875 43.621094 C 240.015625 42.355469 242.566406 41.71875 245.054688 41.71875 C 251.777344 41.71875 256.054688 46.285156 257.910156 48.816406 C 265.390625 47.808594 271.179688 49.570312 275.136719 53.984375 C 279.347656 58.675781 280.289062 65.191406 280.449219 69.003906 C 285.515625 69.0625 288.21875 71.332031 289.597656 73.238281 C 293.007812 77.949219 291.902344 84.933594 291.214844 87.890625 C 294.550781 92.992188 295.609375 97.878906 294.355469 102.4375 C 292.703125 108.453125 287.445312 111.9375 284.996094 113.273438 C 279.238281 137.332031 268.613281 142.429688 260.648438 142.429688 C 254.976562 142.429688 249.871094 139.878906 246.605469 137.757812 C 244.144531 148.230469 237.101562 149.933594 232.792969 149.933594 C 228.484375 149.933594 224.277344 148.324219 221.796875 147.164062 C 219.058594 150.746094 215.171875 152.625 210.414062 152.625 C 205.628906 152.625 200.9375 150.714844 198.09375 149.28125 C 193.414062 159.488281 184.691406 165.066406 173.242188 165.066406 C 171.464844 165.066406 169.816406 164.929688 168.382812 164.738281 C 170.019531 169.339844 170.265625 174.003906 169.113281 178.667969 C 166.328125 189.941406 156.15625 197.667969 152.761719 199.980469 C 148.074219 230.871094 126.46875 231.964844 123.734375 231.980469 C 122.453125 232.15625 121.183594 232.246094 119.953125 232.246094 Z M 79.898438 155.421875 C 80.496094 155.421875 81.089844 155.628906 81.570312 156.03125 C 82.300781 156.636719 82.660156 157.589844 82.511719 158.539062 C 82.484375 158.742188 79.554688 179.117188 91.777344 182.089844 C 92.914062 182.367188 93.738281 183.367188 93.808594 184.558594 C 93.832031 184.980469 96.554688 226.847656 119.949219 226.847656 C 120.992188 226.847656 122.082031 226.765625 123.183594 226.605469 C 123.335938 226.582031 123.492188 226.574219 123.640625 226.578125 C 125.75 226.578125 143.988281 225.777344 147.695312 198.007812 C 147.804688 197.195312 148.273438 196.472656 148.964844 196.050781 C 149.085938 195.980469 161.253906 188.441406 163.984375 177.324219 C 165.203125 172.371094 164.34375 167.347656 161.429688 162.390625 C 160.859375 161.425781 160.941406 160.199219 161.628906 159.316406 C 162.316406 158.4375 163.46875 158.085938 164.519531 158.433594 C 164.550781 158.445312 168.335938 159.664062 173.242188 159.664062 C 183.632812 159.664062 190.714844 154.578125 194.289062 144.546875 C 194.5625 143.777344 195.167969 143.171875 195.929688 142.910156 C 196.6875 142.644531 197.527344 142.75 198.203125 143.191406 C 198.261719 143.230469 204.488281 147.222656 210.410156 147.222656 C 214.125 147.222656 216.796875 145.632812 218.578125 142.355469 C 218.925781 141.71875 219.507812 141.253906 220.195312 141.0625 C 220.882812 140.871094 221.621094 140.96875 222.234375 141.339844 C 222.285156 141.371094 227.652344 144.53125 232.792969 144.53125 L 232.816406 144.53125 C 234.867188 144.53125 240.996094 144.488281 242.046875 132.726562 C 242.136719 131.710938 242.78125 130.832031 243.714844 130.457031 C 244.644531 130.082031 245.703125 130.277344 246.449219 130.960938 C 246.511719 131.019531 253.21875 137.035156 260.648438 137.035156 C 271.847656 137.035156 277.425781 122.769531 280.128906 110.804688 C 280.324219 109.953125 280.902344 109.253906 281.691406 108.917969 C 281.746094 108.894531 287.847656 106.199219 289.269531 100.953125 C 290.136719 97.757812 289.105469 94.074219 286.203125 90 C 285.710938 89.3125 285.566406 88.429688 285.8125 87.617188 C 286.429688 85.546875 287.546875 79.492188 285.339844 76.445312 C 284.074219 74.707031 281.660156 74.089844 278.121094 74.558594 C 277.324219 74.667969 276.527344 74.398438 275.949219 73.832031 C 275.367188 73.265625 275.074219 72.460938 275.144531 71.644531 C 275.152344 71.5625 275.820312 62.71875 271.222656 57.617188 C 268.996094 55.148438 265.921875 53.949219 261.820312 53.949219 C 260.375 53.949219 258.796875 54.105469 257.128906 54.414062 C 256.007812 54.621094 254.882812 54.078125 254.335938 53.058594 C 254.207031 52.828125 250.996094 47.125 245.054688 47.125 C 242.195312 47.125 239.058594 48.441406 235.726562 51.03125 C 234.839844 51.71875 233.628906 51.769531 232.695312 51.160156 C 231.757812 50.546875 231.296875 49.40625 231.535156 48.296875 C 231.5625 48.171875 234.214844 35.460938 228.667969 28.910156 C 227.902344 28.144531 217.664062 18.226562 203.933594 18.226562 C 194.976562 18.226562 186.335938 22.410156 178.246094 30.667969 C 177.308594 31.621094 175.824219 31.726562 174.769531 30.90625 C 174.730469 30.875 170.15625 27.421875 164.457031 27.421875 C 159.667969 27.421875 155.378906 29.878906 151.710938 34.71875 C 150.84375 35.863281 149.246094 36.109375 148.089844 35.277344 C 148.074219 35.265625 145.089844 33.203125 140.988281 33.203125 C 136.460938 33.203125 132.242188 35.664062 128.445312 40.507812 C 127.90625 41.195312 127.066406 41.574219 126.207031 41.515625 C 125.34375 41.457031 124.5625 40.976562 124.113281 40.222656 C 124.074219 40.148438 119.453125 32.578125 113.546875 32.578125 C 110.113281 32.578125 106.640625 35.1875 103.21875 40.335938 C 102.652344 41.183594 101.671875 41.632812 100.675781 41.496094 C 100.667969 41.496094 99.390625 41.328125 97.441406 41.328125 C 93.019531 41.328125 84.871094 42.179688 80.003906 47.851562 C 76.402344 52.050781 75.117188 58.320312 76.1875 66.492188 C 76.332031 67.601562 75.789062 68.6875 74.824219 69.222656 C 74.710938 69.289062 63.015625 75.898438 60.929688 85.265625 C 60.058594 89.175781 60.976562 92.976562 63.738281 96.894531 C 64.589844 98.101562 64.328125 99.78125 63.152344 100.65625 C 63.089844 100.703125 56.578125 105.652344 55.992188 111.886719 C 55.71875 114.828125 56.804688 117.59375 59.308594 120.355469 C 60.152344 121.285156 60.25 122.6875 59.542969 123.730469 C 59.523438 123.761719 56.691406 128.113281 57.804688 133.460938 C 58.699219 137.757812 61.867188 141.65625 67.214844 145.050781 C 67.84375 145.449219 68.28125 146.097656 68.417969 146.839844 C 68.433594 146.925781 70.277344 156.199219 76.0625 156.199219 C 76.945312 156.199219 77.925781 155.996094 78.972656 155.597656 C 79.269531 155.480469 79.585938 155.421875 79.898438 155.421875 Z M 79.898438 155.421875 " fill-opacity="1" fill-rule="nonzero"/><path fill="#f89939" d="M 156.488281 292.210938 C 160.4375 292.210938 160.4375 285.957031 156.488281 285.957031 C 152.535156 285.957031 152.535156 292.210938 156.488281 292.210938 Z M 156.488281 292.210938 " fill-opacity="1" fill-rule="nonzero"/><path fill="#f89939" d="M 174.132812 247.191406 C 178.085938 247.191406 178.085938 240.9375 174.132812 240.9375 C 170.183594 240.9375 170.183594 247.191406 174.132812 247.191406 Z M 174.132812 247.191406 " fill-opacity="1" fill-rule="nonzero"/><path fill="#f89939" d="M 197.074219 189.566406 C 201.023438 189.566406 201.023438 183.308594 197.074219 183.308594 C 193.121094 183.308594 193.121094 189.566406 197.074219 189.566406 Z M 197.074219 189.566406 " fill-opacity="1" fill-rule="nonzero"/><path fill="#f89939" d="M 131.785156 252.585938 C 135.734375 252.585938 135.734375 246.332031 131.785156 246.332031 C 127.832031 246.332031 127.832031 252.585938 131.785156 252.585938 Z M 131.785156 252.585938 " fill-opacity="1" fill-rule="nonzero"/><path fill="#f89939" d="M 214.71875 291.308594 C 218.671875 291.308594 218.671875 285.054688 214.71875 285.054688 C 210.769531 285.054688 210.769531 291.308594 214.71875 291.308594 Z M 214.71875 291.308594 " fill-opacity="1" fill-rule="nonzero"/><path fill="#f89939" d="M 202.183594 219.9375 C 202.558594 218.710938 202.640625 217.429688 201.914062 216.289062 C 201.21875 215.199219 200.140625 214.488281 198.835938 214.488281 C 197.53125 214.488281 196.457031 215.199219 195.757812 216.289062 C 195.03125 217.429688 195.117188 218.710938 195.492188 219.9375 C 195.957031 221.445312 197.25 222.535156 198.835938 222.535156 C 200.421875 222.535156 201.714844 221.445312 202.183594 219.9375 Z M 202.183594 219.9375 " fill-opacity="1" fill-rule="nonzero"/><path fill="#f89939" d="M 161.339844 220.203125 C 161.652344 220.484375 161.964844 220.769531 162.273438 221.050781 C 163.144531 221.839844 164.121094 222.335938 165.3125 222.335938 C 166.445312 222.335938 167.546875 221.871094 168.347656 221.050781 C 169.148438 220.234375 169.605469 219.109375 169.605469 217.953125 C 169.605469 216.738281 169.121094 215.742188 168.347656 214.855469 C 168.070312 214.535156 167.792969 214.21875 167.515625 213.902344 C 165.933594 212.085938 162.949219 212.257812 161.339844 213.902344 C 159.730469 215.542969 159.5625 218.589844 161.339844 220.207031 Z M 161.339844 220.203125 " fill-opacity="1" fill-rule="nonzero"/><path fill="#f89939" d="M 178.546875 280.515625 C 182.496094 280.515625 182.496094 274.261719 178.546875 274.261719 C 174.59375 274.261719 174.59375 280.515625 178.546875 280.515625 Z M 178.546875 280.515625 " fill-opacity="1" fill-rule="nonzero"/><path fill="#f89939" d="M 201.660156 260.828125 C 201.355469 259.976562 200.894531 258.828125 200.011719 258.421875 C 199.191406 258.046875 198.566406 257.929688 197.699219 258.128906 C 197.054688 258.273438 196.488281 258.753906 196.027344 259.195312 C 194.988281 260.195312 194.941406 262.140625 196.027344 263.132812 C 197.144531 264.148438 198.3125 264.480469 199.777344 264.21875 C 200.4375 264.097656 201.175781 263.59375 201.648438 263.132812 C 201.003906 263.402344 200.363281 263.675781 199.71875 263.949219 L 200.601562 263.949219 C 201.8125 263.949219 202.90625 263.097656 203.230469 261.902344 C 203.605469 260.503906 202.777344 258.804688 201.324219 258.480469 C 201.914062 258.613281 201.710938 258.683594 201.46875 258.574219 C 201.179688 258.445312 200.875 258.300781 200.570312 258.203125 C 201.269531 258.917969 201.96875 259.632812 202.671875 260.347656 C 202.382812 259.28125 201.800781 258.703125 200.960938 258.0625 C 201.203125 258.25 201.4375 258.4375 201.675781 258.625 C 201.632812 258.589844 201.59375 258.550781 201.546875 258.515625 C 201.070312 258.03125 200.503906 257.695312 199.855469 257.507812 C 198.765625 257.203125 197.894531 257.46875 196.898438 257.902344 C 196.515625 258.070312 196.183594 258.441406 195.855469 258.726562 C 195.207031 259.296875 194.898438 260.085938 194.621094 260.878906 C 194.109375 262.347656 194.707031 264.15625 195.746094 265.21875 C 197.1875 266.6875 199.28125 266.84375 201.039062 265.914062 C 201.113281 265.878906 201.191406 265.835938 201.257812 265.789062 C 200.507812 265.992188 199.761719 266.203125 199.007812 266.410156 C 201.101562 266.476562 202.847656 265.027344 203.710938 263.175781 C 202.75 263.929688 201.792969 264.679688 200.832031 265.433594 C 202.1875 264.953125 203.332031 264.234375 204.070312 262.949219 C 204.375 262.421875 204.492188 261.957031 204.671875 261.4375 C 204.5 261.855469 204.328125 262.273438 204.15625 262.695312 C 204.15625 262.6875 204.160156 262.683594 204.160156 262.675781 C 203.546875 263.304688 202.929688 263.933594 202.3125 264.566406 C 202.3125 264.566406 202.3125 264.566406 202.316406 264.566406 C 199.726562 263.046875 197.140625 261.535156 194.554688 260.019531 C 194.558594 260.097656 194.539062 260.183594 194.527344 260.261719 C 194.375 261.574219 195.175781 263.113281 196.050781 264.003906 C 197.019531 264.996094 198.347656 265.554688 199.714844 265.554688 C 201.085938 265.554688 202.417969 264.996094 203.382812 264.003906 C 204.253906 263.113281 205.058594 261.570312 204.902344 260.261719 C 204.839844 259.714844 204.847656 259.140625 204.683594 258.617188 C 204.140625 256.847656 202.863281 255.441406 201.082031 254.941406 C 200.167969 254.691406 199.253906 254.691406 198.339844 254.941406 C 197.46875 255.191406 196.707031 255.644531 196.0625 256.296875 C 194.941406 257.207031 194.648438 258.757812 194.539062 260.109375 C 194.414062 261.710938 195.152344 263.03125 196.144531 264.171875 C 195.734375 262.574219 195.320312 260.980469 194.90625 259.386719 C 194.867188 259.636719 194.820312 259.878906 194.75 260.117188 C 194.464844 261.074219 194.367188 262.105469 194.710938 263.066406 L 194.710938 260.648438 C 194.695312 260.6875 194.679688 260.726562 194.667969 260.765625 C 194.816406 260.40625 194.964844 260.050781 195.113281 259.691406 C 195.09375 259.730469 195.078125 259.769531 195.058594 259.8125 C 197.722656 260.167969 200.382812 260.523438 203.046875 260.878906 C 202.789062 260.136719 202.472656 259.304688 201.859375 258.773438 C 201.519531 258.472656 201.148438 258.066406 200.769531 257.902344 C 201.359375 259.375 201.945312 260.851562 202.535156 262.328125 C 202.550781 262.257812 202.5625 262.1875 202.578125 262.117188 C 202.039062 262.832031 201.5 263.550781 200.960938 264.265625 C 201.796875 263.625 202.382812 263.046875 202.667969 261.980469 C 201.96875 262.695312 201.265625 263.410156 200.566406 264.125 C 200.875 264.027344 201.175781 263.878906 201.464844 263.75 C 201.707031 263.644531 201.914062 263.714844 201.324219 263.847656 C 202.5 263.585938 203.324219 262.351562 203.324219 261.164062 C 203.324219 259.648438 202.085938 258.382812 200.597656 258.382812 C 200.070312 258.382812 199.503906 258.335938 198.992188 258.480469 C 198.511719 258.613281 198.136719 258.855469 197.78125 259.203125 C 197.5 259.480469 198.4375 258.726562 198.078125 258.960938 C 197.710938 259.203125 198.785156 258.71875 198.324219 258.851562 C 198.871094 258.695312 199.457031 258.8125 199.878906 259.195312 L 199.878906 263.128906 C 199.925781 263.085938 199.972656 263.042969 200.019531 262.996094 C 199.632812 263.382812 199.152344 263.578125 198.574219 263.578125 C 198.113281 263.453125 197.65625 263.328125 197.195312 263.199219 C 196.921875 262.914062 196.644531 262.628906 196.367188 262.34375 C 196.242188 261.875 196.121094 261.40625 195.996094 260.9375 C 196.019531 261.207031 196.046875 261.050781 196.085938 260.46875 C 196.070312 260.589844 196.03125 260.710938 196 260.828125 C 195.484375 262.703125 196.925781 264.617188 198.828125 264.617188 C 200.617188 264.617188 202.332031 262.679688 201.660156 260.828125 Z M 201.660156 260.828125 " fill-opacity="1" fill-rule="nonzero"/><path fill="#f89939" d="M 124.445312 273.351562 C 123.355469 273.859375 122.386719 275.207031 122.144531 276.375 C 121.902344 277.558594 122.011719 278.289062 122.210938 279.484375 C 122.421875 280.25 122.800781 280.917969 123.351562 281.484375 C 124.179688 282.328125 125.320312 282.808594 126.492188 282.808594 C 127.292969 282.804688 128.039062 282.601562 128.734375 282.191406 C 129.644531 281.644531 130.585938 280.585938 130.773438 279.484375 C 130.804688 279.285156 130.832031 279.085938 130.898438 278.894531 C 130.746094 279.265625 130.59375 279.632812 130.441406 280.003906 C 130.453125 279.96875 130.46875 279.941406 130.488281 279.910156 C 130.25 280.222656 130.011719 280.539062 129.773438 280.851562 C 129.792969 280.828125 129.8125 280.808594 129.835938 280.789062 C 129.527344 281.035156 129.21875 281.277344 128.910156 281.519531 C 128.921875 281.515625 128.933594 281.507812 128.945312 281.5 C 128.582031 281.65625 128.214844 281.816406 127.851562 281.972656 C 127.878906 281.957031 127.910156 281.949219 127.941406 281.945312 C 127.53125 282 127.125 282.058594 126.71875 282.113281 C 126.738281 282.113281 126.753906 282.109375 126.769531 282.109375 C 128.035156 281.988281 129.101562 281.675781 130.027344 280.730469 C 131.1875 279.546875 131.648438 277.777344 131.210938 276.160156 C 130.894531 274.984375 130.125 273.964844 129.09375 273.351562 C 128.375 272.925781 127.601562 272.710938 126.769531 272.707031 C 125.9375 272.710938 125.164062 272.925781 124.445312 273.351562 Z M 124.445312 273.351562 " fill-opacity="1" fill-rule="nonzero"/><path fill="#f89939" d="M 219.128906 158.992188 C 219.71875 158.992188 219.71875 158.054688 219.128906 158.054688 C 218.539062 158.054688 218.539062 158.992188 219.128906 158.992188 Z M 219.128906 158.992188 " fill-opacity="1" fill-rule="nonzero"/><path fill="#f89939" d="M 217.367188 166.152344 C 221.316406 166.152344 221.316406 159.898438 217.367188 159.898438 C 213.414062 159.898438 213.414062 166.152344 217.367188 166.152344 Z M 217.367188 166.152344 " fill-opacity="1" fill-rule="nonzero"/></svg>